<svg xmlns="http://www.w3.org/2000/svg" width="560" height="560" viewBox="0 0 560 560"><path d="M500.3 346.1c-10.2-17.9-24.2-32.7-41.2-43.6 10.4-15.3 16.1-33.5 15.8-52.3-.3-23.7-9.8-46.1-26.8-63-8.9-8.9-19.3-15.7-30.7-20.3 1.7-8.7 2.6-17.7 2.6-26.9C420 62.7 357.3 0 280 0S140 62.7 140 140s62.7 140 140 140c4.8 0 9.5-.2 14.1-.7 2.7 8.1 6.5 15.9 11.3 23-33.8 21.3-55.4 57.4-61 101.7L182 342v-79.1l-81.7-22-8.8 8.8 43.6 43.1L92.5 335l-43.6-43.1-8.9 9L62.2 382h77.4l170.8 169.5c11.6 11.4 29.3 11.3 40.8-.1 11.6-10.6 11.5-29.1.8-40.6L321 480h163.3c19.9 0 35.7-15.6 35.7-35.2v-17.3c0-30.4-6.7-58.5-19.7-81.4zm-210.6-96.5c-3.2.3-6.4.4-9.7.4-29.4 0-57-11.4-77.8-32.2C181.4 197 170 169.4 170 140s11.4-57 32.2-77.8C223 41.4 250.6 30 280 30s57 11.4 77.8 32.2C378.6 83 390 110.6 390 140c0 6.9-.6 13.6-1.9 20.2-1.2-.1-2.4-.1-3.6-.2h-2.2c-50.5 0-91.6 40-92.6 89.6zm54 279.9c0 8-6.6 14.5-14.7 14.5s-14.7-6.5-14.7-14.5S320.9 515 329 515s14.7 6.5 14.7 14.5zM483 438c0 3.2-2.7 6-5.9 6H285.8c-3.2 0-5.8-2.9-5.8-6v-10.5c0-24.1 4.6-46.6 15.6-63.5 28.5-43.9 70.5-50.2 70.5-50.2-21.8-5.7-41-28.4-41-54.9v-3.8c0-16.5 6.8-32.4 18.8-43.4 10.4-9.8 24-15.2 38.4-15.2h1.4c9.9.2 19.6 3.1 28 8.3.2.1.4.3.6.4l.2.2c16.9 10.8 26.9 29.4 26.9 49.7v3.8c0 26.6-20 49.4-40.4 55 0 0 46.4 11 69 50.1 9.9 17.1 15 39.1 15 63.5V438zM343.9 124.4c-3.1-7.7-11.8-11.4-19.5-8.4L295 127.8V70c0-8.3-6.7-15-15-15s-15 6.7-15 15v80c0 5 2.5 9.6 6.6 12.4 2.5 1.7 5.5 2.6 8.4 2.6 1.9 0 3.8-.4 5.6-1.1l50-20c7.7-3 11.4-11.8 8.3-19.5z"/></svg>