<svg xmlns="http://www.w3.org/2000/svg" width="560" height="560" viewBox="0 0 560 560"><path d="M540 120H440V20c0-11-9-20-20-20s-20 9-20 20v100H300c-11 0-20 9-20 20s9 20 20 20h100v100c0 11 9 20 20 20s20-9 20-20V160h100c11 0 20-9 20-20s-9-20-20-20zM315.8 392.6c-12.5-22.4-29.6-40.9-50.5-54.4 12.8-19.1 19.7-41.8 19.4-65.4-.4-29.6-12.1-57.6-32.9-78.8-20.9-21.2-48.6-33.3-78-34h-2.7c-62.7 0-113.7 51.3-113.7 114.3 0 22.8 7 44.9 19.4 63.5C28.1 369.1 0 425.6 0 494.4V516c0 24.5 19.6 44 44 44h252.3c24.4 0 43.8-19.5 43.8-44.1v-21.6c-.1-37.9-8.3-73.1-24.3-101.7zm-253.7 21c-1.6 2.8-3.1 5.7-4.5 8.7 1.4-3 2.9-5.9 4.5-8.7zm225.3 101H52.6c-3.9 0-7.1-3.2-7.1-7.2v-13.1c0-30.2 5.6-58.2 19.1-79.3 35-54.9 86.6-62.7 86.6-62.7-26.7-7.2-50.3-35.5-50.3-68.7V278.9c0-20.7 8.4-40.4 23.1-54.3 12.8-12.2 29.5-19 47.1-19h1.7c12.2.3 24 3.9 34.4 10.4.3.2.5.3.8.5l.3.2c20.7 13.5 33 36.7 33 62.2V283.6c0 33.2-24.5 61.7-49.6 68.7 0 0 56.9 13.8 84.6 62.6 12.1 21.4 18.3 48.9 18.3 79.4v13.1c-.1 4-3.3 7.2-7.2 7.2z"/></svg>
