<svg xmlns="http://www.w3.org/2000/svg" width="560" height="560" viewBox="0 0 560 560">
    <path d="M313.602 23.52c0 5.6-2.243 11.2-5.602 15.68L95.2 280 308 520.8c8.96 10.08 7.84 24.64-1.12 32.48-8.958 8.958-23.52 7.84-32.482-1.12L33.602 280 274.4 7.84c8.96-10.078 22.403-10.078 32.48-1.12 4.48 4.48 6.72 10.08 6.72 16.8z"/>
    <path d="M526.398 23.52c0 5.6-2.238 11.2-5.597 15.68L308 280l212.8 240.8c8.962 10.08 7.84 24.64-1.12 32.48-8.96 8.958-23.52 7.84-32.48-1.12L246.397 280l240.8-272.16c8.962-10.078 22.404-10.078 32.482-1.12 4.48 4.48 6.72 10.08 6.72 16.8z"/>
</svg>
