<svg xmlns="http://www.w3.org/2000/svg" width="560" height="560" viewBox="0 0 560 560">
    <path d="M536.48 313.602c-5.6 0-11.2-2.243-15.68-5.602L280 95.2 39.2 308c-10.08 8.96-24.64 7.84-32.48-1.12-8.958-8.958-7.84-23.52 1.12-32.482L280 33.602l272.16 240.796c10.078 8.96 10.08 22.4 1.12 32.48-4.48 4.48-10.08 6.724-16.8 6.724z"/>
    <path d="M536.48 526.398c-5.6 0-11.2-2.238-15.68-5.597L280 308 39.2 520.8c-10.08 8.962-24.64 7.84-32.48-1.12-8.958-8.96-7.84-23.52 1.12-32.48L280 246.397l272.16 240.8c10.078 8.96 10.08 22.4 1.12 32.482-4.48 4.48-10.08 6.718-16.8 6.718z"/>
</svg>
