<svg xmlns="http://www.w3.org/2000/svg" width="560" height="560" viewBox="0 0 560 560">
    <path d="M23.52 246.398c5.6 0 11.2 2.24 15.68 5.602L280 464.8 520.8 252c10.08-8.96 24.64-7.84 32.48 1.12 8.96 8.96 7.84 23.52-1.12 32.482L280 526.4 7.84 285.602c-10.078-8.96-10.078-22.403-1.12-32.48 4.48-4.48 10.08-6.724 16.8-6.724z"/>
    <path d="M23.52 33.602c5.6 0 11.2 2.24 15.68 5.597L280 252 520.8 39.2c10.08-8.962 24.64-7.84 32.48 1.12 8.96 8.96 7.84 23.52-1.12 32.48L280 313.6 7.84 72.802C-2.238 63.84-2.238 50.4 6.72 40.32c4.48-4.48 10.08-6.718 16.8-6.718z"/>
</svg>
