<svg xmlns="http://www.w3.org/2000/svg" width="560" height="560" viewBox="0 0 560 560">
    <path d="M246.398 536.48c0-5.6 2.243-11.2 5.602-15.68L464.8 280 252 39.2c-8.96-10.08-7.84-24.64 1.12-32.48 8.958-8.958 23.52-7.84 32.48 1.12L526.398 280 285.6 552.16c-8.96 10.078-22.403 10.078-32.48 1.12-4.48-4.48-6.724-10.08-6.724-16.8z"/>
    <path d="M33.602 536.48c0-5.6 2.238-11.2 5.597-15.68L252 280 39.2 39.2C31.36 29.12 31.36 14.56 41.44 5.6c8.958-8.96 23.52-7.84 32.48 1.117L313.602 280l-240.8 272.16c-8.962 10.078-22.404 10.078-32.482 1.12-4.48-4.48-6.718-10.08-6.718-16.8z"/>
</svg>
