<svg xmlns="http://www.w3.org/2000/svg" viewBox="0 0 560 560"><path d="M500.3 246L262 484.3C215.4 531 139.4 532 92.6 485.5c-46.9-46.6-47-122.4-.3-169.1L344.8 63.8c31-31 81.6-31.9 112.8-1.1 31.5 31 31.7 81.8.4 113L204.8 428.9c-15.5 15.5-40.7 15.5-56.3 0-18.7-18.7-18.7-37.6 0-56.3l154.8-154.8c7.8-7.8 7.8-20.4 0-28.1-7.8-7.8-20.4-7.8-28.1 0L121.1 343.8c-31 31-31.9 81.6-1.1 112.8 31 31.5 81.8 31.7 113 .4l252.4-252.4C532 158.1 533 82.1 486.5 35.3c-46.6-46.9-122.4-47-169.1-.3L65.2 287.2C2.9 349.5 1.8 451 64.1 513.3c62.2 62.2 163 62.2 225.2.1l239.2-239.2c7.8-7.8 7.8-20.4 0-28.1-7.8-7.8-20.4-7.8-28.2-.1z"/></svg>