<svg xmlns="http://www.w3.org/2000/svg" width="560" height="560" viewBox="0 0 560 560"><path d="M559.8 408L499.3 97.5c-1.1-5.6-4.6-9-9.1-12.4-4.6-2.3-10.3-2.3-14.8 0L382.8 128 288 81.7c-4.6-2.3-10.3-2.3-14.8 0l-96 46.3-92.5-42.9c-4.6-2.3-10.3-2.3-14.8 0-4.6 2.3-8 6.8-9.1 12.4L.2 408c-1.1 7.9 3.4 15.8 10.3 19.2l137.1 51.9c4.6 1.1 8 1.1 12.6 0L280 430.6 399.9 478c2.3 1.1 4.6 1.1 6.9 1.1 2.3 0 4.6 0 5.7-1.1l137.1-51.9c6.8-2.3 11.4-10.2 10.2-18.1zm-146.2 33.9l-3.4-40.6 94.8-93.7 8 42.9-86.8 85.8-12.6 5.6zm-8-103.9l89.1-88.1 8 42.9-93.7 92.6-3.4-47.4zm-12.5 64.4l-26.3 26-37.7-14.7 60.5-59.8 3.5 48.5zm-139.4 2.2l-87.9 35 105.1-103.9v51.9l-17.2 17zm121.1-239.3l3.4 48.6-89.1 88.1v-51.9l85.7-84.8zm17.1-4.6l74.2-35-72 71.1-2.2-36.1zm-121 158.1l-105.1 105 4.6-56.5L272 266.9v51.9h-1.1zm18.2-1.1l91.4-90.3 3.4 48.6-94.8 93.7v-52zm106.3-106.2l75.4-74.5 8 42.9-81.1 80.2-2.3-48.6zm87.9-18l8 42.9-86.8 85.8-3.4-48.6 82.2-80.1zm-116.5-36.2l-77.7 76.8V119l77.7 38.3zm-181.6 4.6l86.8-41.8v132.1l-100.5 99.4 13.7-189.7zm-94.8-37.3l77.7 36.1-16 208.9-54.8 53.1-60.5-22.6 53.6-275.5zm19.4 302.6l41.1-40.6-4.6 55.3-36.5-14.7zm179.3-41.8l95.9-94.8 3.4 48.6-70.8 70-28.6-11.3v-12.5zm89.1 47.5l16-15.8 2.3 22.6-18.3-6.8zm75.4-6.8l62.8-62.1 6.9 36.1-69.7 26z"/></svg>