<svg xmlns="http://www.w3.org/2000/svg" width="560" height="560" viewBox="0 0 560 560"><path d="M520 0H40C17.9 0 0 17.8 0 39.7v480.7C0 542.2 17.9 560 40 560h480c22.1 0 40-17.8 40-39.7V39.7C560 17.8 542.1 0 520 0zM40 500V140c0-11 9-20 20-20h440c11 0 20 9 20 20v360c0 11-9 20-20 20H60c-11 0-20-9-20-20zM100 180h40v40h-40v-40zM180 180h40v40h-40v-40zM260 180h40v40h-40v-40zM340 180h40v40h-40v-40zM420 180h40v40h-40v-40zM100 260h40v40h-40v-40zM180 260h40v40h-40v-40zM260 260h40v40h-40v-40zM340 260h40v40h-40v-40zM420 260h40v40h-40v-40zM100 340h40v40h-40v-40zM180 340h40v40h-40v-40zM100 420h40v40h-40v-40zM180 420h40v40h-40v-40zM260 340h40v40h-40v-40zM340 340h40v40h-40v-40zM420 340h40v40h-40v-40z"/></svg>