<?xml version="1.0" encoding="UTF-8"?>
<svg width="24px" height="24px" viewBox="0 0 24 24" version="1.1" xmlns="http://www.w3.org/2000/svg" xmlns:xlink="http://www.w3.org/1999/xlink">
    <title>camera</title>
    <g id="camera" stroke="none" stroke-width="1" fill="none" fill-rule="evenodd" stroke-linecap="round" stroke-linejoin="round">
        <path d="M23,8 C23,6.8954305 22.1045695,6 21,6 L17,6 L15,3 L9,3 L7,6 L3,6 C1.8954305,6 1,6.8954305 1,8 L1,19 C1,20.1045695 1.8954305,21 3,21 L21,21 C22.1045695,21 23,20.1045695 23,19 M1,8 C1,6.8954305 1.8954305,6 3,6 L7,6 L9,3 L15,3 L17,6 L21,6 C22.1045695,6 23,6.8954305 23,8 L23,19 C23,20.1045695 22.1045695,21 21,21 L3,21 C1.8954305,21 1,20.1045695 1,19 M12,17 C14.209139,17 16,15.209139 16,13 C16,10.790861 14.209139,9 12,9 C9.790861,9 8,10.790861 8,13 M12,17 C9.790861,17 8,15.209139 8,13 C8,10.790861 9.790861,9 12,9 C14.209139,9 16,10.790861 16,13" id="Shape" stroke="#000000" stroke-width="2"></path>
    </g>
</svg>