<svg xmlns="http://www.w3.org/2000/svg" width="560" height="560" viewBox="0 0 560 560"><path d="M542.5 517.8l-86-15.1c-9.4-1.6-16.3-9.7-16.5-19.2 0-1.6-.1-2.9-.1-3.6-1-20.4-4.8-40-11.2-58.4C506 387.3 560 310 560 220 560 98.5 461.5 0 340 0S120 98.5 120 220c0 29.1 5.7 56.9 15.9 82.3C67.3 336.8 20.2 407.8 20.2 489.8v2.8c.1 6.6-3.1 12.7-8.5 16.5C4.6 514.3 0 522.6 0 532c0 15.5 12.6 28 28 28 1.4 0 2.8 0 4.1-.2v.2H538.7c11.7 0 21.2-9.6 21.2-21.3v-.1c.1-10.2-7.3-19.1-17.4-20.8zm-324.7-420c32.6-32.6 76.1-50.6 122.2-50.6 46.2 0 89.6 18 122.2 50.6 32.6 32.6 50.6 76.1 50.6 122.2 0 46.2-18 89.6-50.6 122.2-15.8 15.8-34 28.1-53.9 36.6-37.1-59.4-103-98.9-178.2-98.9-17.2 0-34 2.1-50 6-8.5-20.7-13-43-13-66 0-46.1 18-89.5 50.7-122.1zm166.8 344.9c-2.4 1-5 1.4-7.4 1.4-7.9 0-15.4-4.8-18.6-12.6-9.3-23.2-25.1-42.9-45.7-57.1-21.1-14.5-45.9-22.2-71.6-22.2-19.6 0-38.5 4.4-55.9 13-9.9 4.9-21.9.8-26.8-9.1-4.9-9.9-.8-21.9 9.1-26.8 23-11.4 47.8-17.2 73.7-17.2 33.9 0 66.5 10.1 94.3 29.3 27.1 18.7 47.9 44.7 60.1 75.2 4.1 10.3-.9 22-11.2 26.1zM326.6 255.2c4 2.7 8.8 4.1 13.4 4.1 3 0 6-.6 8.8-1.7l78.6-31.4c12.1-4.8 18-18.6 13.2-30.6-4.8-12.1-18.4-18-30.5-13.1l-46 18.5v-91c0-13-11-23.6-24-23.6S316 97 316 110v125.7c0 7.8 4.1 15.1 10.6 19.5z"/></svg>