<svg xmlns="http://www.w3.org/2000/svg" width="560" height="560" viewBox="0 0 560 560"><path d="M280 299.6c0 11.6-9.8 20.4-20.4 20.4-10.7 0-19.6-8.9-19.6-20.4 0-10.7 8.9-19.6 19.6-19.6 10.6 0 20.4 8.9 20.4 19.6zM279.9 379.5c0 10.6-9.8 19.5-20.4 19.5-10.6 0-19.5-8.9-19.5-19.5s8.9-19.5 19.5-19.5 20.4 8.9 20.4 19.5zM280 460.4c0 10.7-9.8 19.6-20.4 19.6-10.7 0-19.6-8.9-19.6-19.6 0-11.6 8.9-20.4 19.6-20.4 10.6 0 20.4 8.9 20.4 20.4zM280 539.6c0 10.7-9.8 20.4-20.4 20.4-10.7 0-19.6-9.8-19.6-20.4 0-10.7 8.9-19.6 19.6-19.6 10.6 0 20.4 8.9 20.4 19.6zM313 280h247v40H313v-40zM313 360h247v40H313v-40zM313 440h247v40H313v-40zM313 520h247v40H313v-40zM200 235.7c-4.2 0-8.7-1.2-12.3-3.7-5.9-4-9.7-10.6-9.7-17.7V100c0-11.8 10.2-21.4 22-21.4s22 9.6 22 21.4v82.6l41.8-16.8c11-4.4 23.3.9 27.7 11.9s-1 23.5-12 27.9L208 234.2c-2.6 1-5.3 1.5-8 1.5zM200 0C89.5 0 0 89.5 0 200c0 67.2 33.1 126.6 84 162.9L52.5 414l116.8-27.7-27.7-116.8-35 56.8c-6.2-4.6-12.1-9.7-17.6-15.2C59.3 281.4 43 242 43 200s16.3-81.4 46-111.1c29.7-29.7 69.1-46 111.1-46s81.4 16.3 111.1 46c29.7 29.7 46 69.1 46 111.1H400C400 89.5 310.5 0 200 0z"/></svg>