<svg xmlns="http://www.w3.org/2000/svg" width="560" height="560" viewBox="0 0 560 560"><path d="M310 455.9l-49.1-8.6c-5.4-.9-9.3-5.5-9.5-11 0-.9 0-1.6-.1-2.1-.6-13.7-3.6-26.7-8.4-38.8C225.2 351.2 182 320 131.5 320c-19.1 0-37.1 4.5-53.1 12.4-39.6 19.6-66.9 60.4-66.9 107.5v1.6c.1 3.8-1.8 7.3-4.9 9.4-4.1 2.9-6.7 7.7-6.7 13 0 8.8 7.2 16 16 16 .8 0 1.6 0 2.3-.1v.1h289.5c6.7 0 12.1-5.5 12.1-12.2.2-5.8-4-10.8-9.8-11.8zM550 195.9l-49.1-8.6c-5.4-.9-9.3-5.5-9.5-11 0-.9 0-1.6-.1-2.1-.6-13.7-3.6-26.7-8.4-38.8C465.2 91.2 422 60 371.5 60c-19.1 0-37.1 4.5-53.1 12.4-39.6 19.6-66.8 60.4-66.8 107.5v1.6c.1 3.8-1.8 7.3-4.9 9.4-4.1 2.9-6.7 7.7-6.7 13 0 8.8 7.2 16 16 16 .8 0 1.6 0 2.3-.1v.1h289.5c6.7 0 12.1-5.5 12.1-12.2.1-5.8-4.1-10.8-9.9-11.8zM70.5 273c-18.3-19.6-28.3-44.9-28.3-71.8 0-28.2 10.9-54.6 30.8-74.5 18.2-18.2 41.6-29.2 67.2-30.8l-.1 52.4 73.9-74L140 0v54.1c-35.1 1.6-70 15.5-97 42.6-56.7 56.7-57.3 148.1-2.3 206L70.5 273zM489.5 287c18.3 19.6 28.3 44.9 28.3 71.8 0 28.2-10.9 54.6-30.8 74.5-18.2 18.2-41.6 29.2-67.2 30.8l.1-52.4-73.9 74 74 74.3v-54.1c35.1-1.6 70-15.5 97-42.6 56.7-56.7 57.3-148.1 2.3-206L489.5 287z"/></svg>