<?xml version="1.0" encoding="UTF-8"?>
<svg width="24px" height="24px" viewBox="0 0 24 24" version="1.1" xmlns="http://www.w3.org/2000/svg" xmlns:xlink="http://www.w3.org/1999/xlink">
    <title>chat</title>
    <g id="chat" stroke="none" stroke-width="1" fill="none" fill-rule="evenodd" stroke-linecap="round" stroke-linejoin="round">
        <path d="M17,7 L19,7 C20.1046,7 21,7.89543 21,9 L21,15 C21,16.1046 20.1046,17 19,17 L17,17 L17,21 L13,17 L9,17 C8.44772,17 7.94772,16.7761 7.58579,16.4142 M7.58579,16.4142 L11,13 L15,13 C16.1046,13 17,12.1046 17,11 L17,5 C17,3.89543 16.1046,3 15,3 L5,3 C3.89543,3 3,3.89543 3,5 L3,11 C3,12.1046 3.89543,13 5,13 L7,13 L7,17 L7.58579,16.4142 Z" id="Shape" stroke="#000000" stroke-width="2"></path>
    </g>
</svg>