<svg xmlns="http://www.w3.org/2000/svg" width="560" height="560" viewBox="0 0 560 560">
    <path d="M514.078 262.078c0 12.32-4.476 24.64-13.437 34.723-17.92 19.04-48.16 19.04-66.08 0L280 136.64 125.44 296.8c-17.92 19.04-48.16 19.04-66.08 0-17.92-19.038-17.92-49.28 0-68.32L280 0l221.762 228.48c7.84 8.96 12.32 21.28 12.32 33.598z"/>
    <path d="M514.078 510.72c0 12.32-4.476 24.64-13.437 34.72-17.92 19.04-48.16 19.04-66.08 0L280 385.28 125.44 544.32c-17.92 19.04-48.16 19.04-66.08 0s-17.92-49.28 0-68.32L280 248.64l221.762 228.48c7.84 8.96 12.32 21.28 12.32 33.6z"/>
</svg>
