<svg xmlns="http://www.w3.org/2000/svg" width="560" height="560" viewBox="0 0 560 560"><path d="M280 40c32.4 0 63.8 6.3 93.4 18.8 28.6 12.1 54.2 29.4 76.3 51.5 22.1 22.1 39.4 47.7 51.5 76.3 12.5 29.6 18.8 61 18.8 93.4s-6.3 63.8-18.8 93.4c-12.1 28.6-29.4 54.2-51.5 76.3-22.1 22.1-47.7 39.4-76.3 51.5-29.6 12.5-61 18.8-93.4 18.8s-63.8-6.3-93.4-18.8c-28.6-12.1-54.2-29.4-76.3-51.5-22.1-22.1-39.4-47.7-51.5-76.3C46.3 343.8 40 312.4 40 280s6.3-63.8 18.8-93.4c12.1-28.6 29.4-54.2 51.5-76.3 22.1-22.1 47.7-39.4 76.3-51.5C216.2 46.3 247.6 40 280 40m0-40C125.4 0 0 125.4 0 280s125.4 280 280 280 280-125.4 280-280S434.6 0 280 0z"/></svg>