<?xml version="1.0" encoding="UTF-8"?>
<svg width="24px" height="24px" viewBox="0 0 24 24" version="1.1" xmlns="http://www.w3.org/2000/svg" xmlns:xlink="http://www.w3.org/1999/xlink">
    <title>database</title>
    <g id="database" stroke="none" stroke-width="1" fill="none" fill-rule="evenodd" stroke-linecap="round" stroke-linejoin="round">
        <path d="M21,5 L21,19 C21,20.66 17,22 12,22 C7,22 3,20.66 3,19 L3,5 C3,3.34314575 7.02943725,2 12,2 C16.9705627,2 21,3.34314575 21,5 C21,6.65685425 16.9705627,8 12,8 C7.02943725,8 3,6.65685425 3,5 C3,3.34314575 7.02943725,2 12,2 C16.9705627,2 21,3.34314575 21,5 C21,8.5 21,8.5 21,12 C21,13.66 17,15 12,15 C7,15 3,13.66 3,12" id="Oval" stroke="#000000" stroke-width="2"></path>
    </g>
</svg>