<svg xmlns="http://www.w3.org/2000/svg" width="560" height="560" viewBox="0 0 560 560"><path d="M560 60V40c0-11-9-20-20-20h-70V10c0-5.5-4.5-10-10-10h-60c-5.5 0-10 4.5-10 10v10h-70c-11 0-20 9-20 20v20"/><path d="M320 80v220c0 11 9 20 20 20h180c11 0 20-9 20-20V80H320zm60 190c0 5.5-4.5 10-10 10s-10-4.5-10-10V130c0-5.5 4.5-10 10-10s10 4.5 10 10v140zm60 0c0 5.5-4.5 10-10 10s-10-4.5-10-10V130c0-5.5 4.5-10 10-10s10 4.5 10 10v140zm60 0c0 5.5-4.5 10-10 10s-10-4.5-10-10V130c0-5.5 4.5-10 10-10s10 4.5 10 10v140zM429.2 491.2L196 256.6v-110L83.3 116 71 128.2l59.8 59.9-58.7 58.7-59.9-59.9L0 199.8 30.6 313h106.3l234.7 235.2c15.9 15.9 40.4 15.5 56.3-.4 15.9-14.7 16-40.7 1.3-56.6zm-32 46.2c-11.1 0-20.2-9-20.2-20.2 0-11.1 9-20.2 20.2-20.2 11.1 0 20.2 9 20.2 20.2s-9 20.2-20.2 20.2z"/></svg>