<svg xmlns="http://www.w3.org/2000/svg" width="560" height="560" viewBox="0 0 560 560"><path d="M100 140v380c0 22.1 17.9 40 40 40h280c22.1 0 40-17.9 40-40V140H100zm40 340V260c0-11 9-20 20-20s20 9 20 20v220c0 11-9 20-20 20s-20-9-20-20zm80 0V260c0-11 9-20 20-20s20 9 20 20v220c0 11-9 20-20 20s-20-9-20-20zm80 0V260c0-11 9-20 20-20s20 9 20 20v220c0 11-9 20-20 20s-20-9-20-20zm100 20c-11 0-20-9-20-20V260c0-11 9-20 20-20s20 9 20 20v220c0 11-9 20-20 20zM440 40H340V20c0-11-9-20-20-20h-80c-11 0-20 9-20 20v20H120c-22.1 0-40 17.9-40 40v20h400V80c0-22.1-17.9-40-40-40z"/></svg>