<svg xmlns="http://www.w3.org/2000/svg" width="560" height="560" viewBox="0 0 560 560"><ellipse cx="395.4" cy="54.8" rx="55.4" ry="54.8"/><path d="M483.7 248.5l-63.3-32.1c-1.8-.9-3.3-2.4-4.3-4.2l-43-79.1c-7-13-20.7-21.1-35.6-21.1H203.8c-13.8 0-26.6 7-34.1 18.5l-56.1 87c-8.9 13.9-4.8 32.2 9.3 41.1 14.1 8.9 32.7 4.6 41.7-9.3l47.2-73.6c1.9-2.9 5.1-4.6 8.5-4.6h41.9L64 512c-8.3 14.3-3.3 32.6 11.1 40.8 4.8 2.7 9.9 4 15 4 10.5 0 20.6-5.4 26.2-15l120.5-207.2 87.1 71.9c3.1 2.6 4.4 6.7 3.2 10.5L296 521.6c-4.7 15.8 4.4 32.5 20.4 37.2 2.9.8 5.7 1.2 8.6 1.2 13 0 25.1-8.4 29-21.4l36.9-123.4c4.6-15.3-.5-31.8-12.9-42.1l-71.5-59 49.8-86.3 11 20.3c3.8 7.1 9.8 12.9 17 16.6l71.6 36.8c4.4 2.3 9.2 3.4 13.9 3.4 10.9 0 21.5-5.9 26.8-16.1 7.7-14.7 1.9-32.7-12.9-40.3z"/></svg>