<svg xmlns="http://www.w3.org/2000/svg" width="560" height="560" viewBox="0 0 560 560"><path d="M550 120h-32c-2.6-12.8-7.6-24.6-14.6-35.1L526 62.3c3.9-3.9 3.9-10.2 0-14.1l-14.1-14.1c-3.9-3.9-10.2-3.9-14.1 0l-22.6 22.6c-10.5-7-22.4-12-35.1-14.6V10c0-5.5-4.5-10-10-10h-20c-5.5 0-10 4.5-10 10v32c-12.8 2.6-24.6 7.6-35.1 14.6L342.4 34c-3.9-3.9-10.2-3.9-14.1 0l-14.1 14.1c-3.9 3.9-3.9 10.2 0 14.1l22.6 22.6c-7 10.5-12 22.4-14.6 35.1h-32c-5.5 0-10 4.5-10 10v20c0 5.5 4.5 10 10 10h32c2.6 12.8 7.6 24.6 14.6 35.1l-22.6 22.6c-3.9 3.9-3.9 10.2 0 14.1l14.1 14.1c3.9 3.9 10.2 3.9 14.1 0l22.6-22.6c10.5 7 22.4 12 35.1 14.6v32c0 5.5 4.5 10 10 10h20c5.5 0 10-4.5 10-10v-32c12.8-2.6 24.6-7.6 35.1-14.6l22.6 22.6c3.9 3.9 10.2 3.9 14.1 0l14.1-14.1c3.9-3.9 3.9-10.2 0-14.1L503.4 195c7-10.5 12-22.4 14.6-35.1h32c5.5 0 10-4.5 10-10v-20c0-5.4-4.5-9.9-10-9.9zm-130 80c-35.3 0-64-26.9-64-60s28.7-60 64-60 64 26.9 64 60-28.7 60-64 60zM429.2 491.2L196 256.6v-110L83.3 116 71 128.2l59.8 59.9-58.7 58.7-59.9-59.9L0 199.8 30.6 313h106.3l234.7 235.2c15.9 15.9 40.4 15.5 56.3-.4 15.9-14.7 16-40.7 1.3-56.6zm-32 46.2c-11.1 0-20.2-9-20.2-20.2 0-11.1 9-20.2 20.2-20.2 11.1 0 20.2 9 20.2 20.2s-9 20.2-20.2 20.2z"/></svg>