<svg xmlns="http://www.w3.org/2000/svg" width="560" height="560" viewBox="0 0 560 560"><path d="M520 60v440c0 11-9 20-20 20H340c-11 0-20 9-20 20s9 20 20 20h180c22.1 0 40-17.9 40-40V40c0-22.1-17.9-40-40-40H40C17.9 0 0 17.9 0 40v180c0 11 9 20 20 20s20-9 20-20V60c0-11 9-20 20-20h440c11 0 20 9 20 20zM380 160H220c-11 0-20 9-20 20s9 20 20 20h111.7l-80 80H40c-22.1 0-40 17.9-40 40v200c0 22.1 17.9 40 40 40h200c22.1 0 40-17.9 40-40V308.3l80-80V340c0 11 9 20 20 20s20-9 20-20V180c0-11-9-20-20-20zM240 500c0 11-9 20-20 20H60c-11 0-20-9-20-20V340c0-11 9-20 20-20h180v180z"/></svg>