<svg xmlns="http://www.w3.org/2000/svg" width="560" height="560" viewBox="0 0 560 560"><path d="M271 174.6v62.8l10.3-53.6-10.3-9.2zM506.9 172.3l-11.4 11.4 25.1 148.4-19.4-10.3 21.7 110.7-109.6 42.2L398.5 267l-10.3-4.6-8 4.6 14.9 206.6L288 430.3V315l-17 9.1v106.1l-107.5 43.4L184 191.7l68.4-34.2-26.3-25.1-49.1 25.1-92.5-43.4c-4.6-2.3-10.3-2.3-14.8 0-4.6 2.3-8 6.8-9.1 12.6L.2 440.5c-1.1 8 3.4 16 10.3 19.4l137 52.5c4.6 1.1 8 1.1 12.6 0l119.8-49.1 119.8 47.9c2.3 1.1 4.6 1.1 6.8 1.1 2.3 0 4.6 0 5.7-1.1l137-52.5c8-3.4 12.6-11.4 10.3-19.4l-52.6-267zM146.3 474.8L36.7 432.6l53.6-278.5 77.6 36.5-21.6 284.2zM388.2 0l43.4 89 98.2 13.7-70.8 69.6 17.1 97-87.9-45.7-87.9 45.7 17.1-97-70.8-69.6 97-13.7 44.6-89z"/></svg>