<?xml version="1.0" encoding="UTF-8"?>
<svg width="24px" height="24px" viewBox="0 0 24 24" version="1.1" xmlns="http://www.w3.org/2000/svg" xmlns:xlink="http://www.w3.org/1999/xlink">
    <title>grid</title>
    <g id="grid" stroke="none" stroke-width="1" fill="none" fill-rule="evenodd" stroke-linecap="round" stroke-linejoin="round">
        <path d="M14,21 L21,21 L21,14 L14,14 M21,21 L14,21 L14,14 L21,14 M14,10 L21,10 L21,3 L14,3 M21,10 L14,10 L14,3 L21,3 M3,3 L10,3 L10,10 L3,10 M10,3 L3,3 L3,10 L10,10 M3,14 L10,14 L10,21 L3,21 M10,14 L3,14 L3,21 L10,21" id="Shape" stroke="#000000" stroke-width="2"></path>
    </g>
</svg>