<svg xmlns="http://www.w3.org/2000/svg" width="560" height="560" viewBox="0 0 560 560"><path d="M541.8 174.3c-9.4-16.8-22.3-30.6-38-40.8 9.6-14.3 14.9-31.4 14.6-49-.3-22.2-9.1-43.1-24.8-59C477.9 9.6 457 .5 434.9 0h-2c-47.2 0-85.7 38.4-85.7 85.7 0 17.1 5.1 33.6 14.4 47.6-9.2 5.9-17.5 13-24.7 21.2-16.2-8.6-34.2-13.4-52.9-13.8h-2.9c-20.5 0-39.8 5.2-56.6 14.3-7.1-8.3-15.3-15.5-24.5-21.4 9.6-14.3 14.9-31.4 14.6-49-.3-22.2-9.1-43.1-24.8-59C174.1 9.6 153.2.5 131 0h-2C81.8 0 43.3 38.4 43.3 85.7c0 17.1 5.2 33.6 14.5 47.6C21.2 156.7 0 199 0 250.6v16.2C0 285.1 14.8 300 33.2 300h135c3.4 9.5 7.9 18.5 13.5 26.9-51.2 32.7-80.8 91.9-80.8 163.9v22.6c0 25.7 20.6 46.5 46.3 46.5h265.7c25.7 0 46.1-20.8 46.1-46.5v-22.6c0-39.8-8.6-76.6-25.5-106.6-13.2-23.5-31.2-42.8-53.2-57 5.7-8.5 10.3-17.6 13.7-27.2h133.1c18.4 0 32.9-14.9 32.9-33.2v-16.2c0-28.5-6.1-54.8-18.2-76.3zM39.8 266c-3 0-5.8-2.7-5.8-5.6v-9.8c0-22.6 4.4-43.6 14.6-59.4 26.3-41.1 65.3-47 65.3-47-20.1-5.4-37.8-26.6-37.8-51.5 0-.6 0-1.2.1-1.7v-1.8c0-15.5 6.3-30.3 17.4-40.7 9.6-9.2 22.2-14.2 35.5-14.2h1.3c9.2.2 18.1 2.9 25.9 7.8.2.1.4.2.6.4l.2.1C172.7 52.7 182 70.1 182 89.2v3.5c0 24.9-18.5 46.3-37.4 51.5 0 0 30.3 7.3 52.3 31.3-21.8 21.7-35.4 51.8-35.4 84.9 0 1.9.1 3.7.2 5.6H39.8zm126.6 140.3c-1.7 2.9-3.3 6-4.8 9.1 1.5-3.2 3.1-6.2 4.8-9.1zm225.3 1.4c12.7 22.4 19.3 51.2 19.3 83.2v13.7c0 4.1-3.3 7.4-7.4 7.4H156.4c-4.1 0-7.4-3.3-7.4-7.4v-13.7c0-31.6 5.9-61 20.1-83.1 36.8-57.5 91.1-65.7 91.1-65.7-28.1-7.5-52.9-37.2-52.9-71.9v-4.9c0-21.6 8.8-42.4 24.3-56.9 13.5-12.8 31.1-19.9 49.6-19.9h1.7c12.8.3 25.3 4.1 36.2 10.9.3.2.6.3.8.5l.3.2c21.8 14.1 34.8 38.5 34.8 65.1v4.9c0 34.8-25.8 64.7-52.3 72 0 0 59.9 14.4 89 65.6zM526 260.4c0 3-2.6 5.6-5.6 5.6H400.6c.1-2.4.2-4.8.1-7.3-.4-31-12.7-60.3-34.7-82.5-.4-.4-.8-.7-1.1-1.1 24.6-26.7 52.9-31 52.9-31-20.1-5.4-37.9-26.6-37.9-51.5v-3.5c0-15.5 6.3-30.3 17.4-40.7 9.6-9.2 22.2-14.2 35.5-14.2h1.2c9.2.2 18.1 2.9 25.9 7.8.2.1.4.2.6.4l.2.1c15.6 10.1 24.9 27.5 24.9 46.6v3.5c0 24.9-18.5 46.3-37.4 51.5 0 0 43 10.3 63.8 46.9 9.1 16 13.9 36.6 13.9 59.5v9.9z"/></svg>