<?xml version="1.0" encoding="UTF-8"?>
<svg width="24px" height="24px" viewBox="0 0 24 24" version="1.1" xmlns="http://www.w3.org/2000/svg" xmlns:xlink="http://www.w3.org/1999/xlink">
    <title>group</title>
    <g id="group" stroke="none" stroke-width="1" fill="none" fill-rule="evenodd" stroke-linecap="round" stroke-linejoin="round">
        <path d="M1,19.5833333 L1,18.6666667 C1,17.6541446 2.02601411,16.8333333 3.29166667,16.8333333 L5.58333333,16.8333333 M4.66666667,9.5 C3.65414417,9.5 2.83333333,10.3208108 2.83333333,11.3333333 C2.83333333,12.3458833 3.65414417,13.1666667 4.66666667,13.1666667 C5.67918917,13.1666667 6.5,12.3458833 6.5,11.3333333 M4.66666667,9.5 C5.67918917,9.5 6.5,10.3208108 6.5,11.3333333 C6.5,12.3458833 5.67918917,13.1666667 4.66666667,13.1666667 C3.65414417,13.1666667 2.83333333,12.3458833 2.83333333,11.3333333 M12,4 C9.9749,4 8.33333333,5.64162778 8.33333333,7.66666667 C8.33333333,9.69170556 9.9749,11.3333333 12,11.3333333 C14.0251,11.3333333 15.6666667,9.69170556 15.6666667,7.66666667 M12,4 C14.0251,4 15.6666667,5.64162778 15.6666667,7.66666667 C15.6666667,9.69170556 14.0251,11.3333333 12,11.3333333 C9.9749,11.3333333 8.33333333,9.69170556 8.33333333,7.66666667 M19.3333333,9.5 C18.3207833,9.5 17.5,10.3208108 17.5,11.3333333 C17.5,12.3458833 18.3207833,13.1666667 19.3333333,13.1666667 C20.3458833,13.1666667 21.1666667,12.3458833 21.1666667,11.3333333 M19.3333333,9.5 C20.3458833,9.5 21.1666667,10.3208108 21.1666667,11.3333333 C21.1666667,12.3458833 20.3458833,13.1666667 19.3333333,13.1666667 C18.3207833,13.1666667 17.5,12.3458833 17.5,11.3333333 M18.4166667,19.5833333 L18.4166667,17.1388889 C18.4166667,15.4513522 16.9802469,14.0833333 15.2083333,14.0833333 L8.79166667,14.0833333 C7.01975309,14.0833333 5.58333333,15.4513522 5.58333333,17.1388889 L5.58333333,19.5833333 M18.4166667,16.8333333 L20.7083333,16.8333333 C21.9739859,16.8333333 23,17.6541446 23,18.6666667 L23,19.5833333" id="Shape" stroke="#000000" stroke-width="2"></path>
    </g>
</svg>