<svg xmlns="http://www.w3.org/2000/svg" viewBox="0 0 560 560" width="560" height="560">
  <path d="M556 269.4l-13.5-15.5a557.7 557.7 0 0 0-93.2-86.6l-28.8 28.8c24 16.7 47.9 37.4 71.6 62.3a31.2 31.2 0 0 1 0 43.2 439.2 439.2 0 0 1-93.3 76.2c-40.1 23.6-80.7 35.6-120.5 35.6-22-.1-43.8-3.6-64.7-10.4l-31.3 31.3a256.7 256.7 0 0 0 96 19.1c47.3 0 94.8-13.9 141.4-41.3 41.6-24.5 83-60.2 123-106.1l13.5-15.5c5.1-6 5.1-15-.2-21.1zm-489.5 32a31.3 31.3 0 0 1 0-42.7c53.7-58.2 126.5-112.1 211.7-112.1 22.9.1 45.7 3.9 67.5 11.2l31.2-31.2a261 261 0 0 0-98.7-20c-51.5 0-102.9 16.4-152.7 48.7a499.6 499.6 0 0 0-109 99.2L3.8 269.7c-5 6-5 14.7 0 20.7l12.7 15.1a520.2 520.2 0 0 0 93.1 88.4l28.8-28.9a453 453 0 0 1-71.9-63.6z"/>
  <path d="M309.1 194.7l-114.3 114a90 90 0 0 1 56.8-114 90 90 0 0 1 57.5 0zM370 280a90 90 0 0 1-118.7 85.3l114-114A90.4 90.4 0 0 1 370 280zM75.9 455.8L457.1 74.6a20 20 0 0 1 28.3 28.3L104.2 484.1a20 20 0 0 1-28.3-28.3z"/>
</svg>
