<svg xmlns="http://www.w3.org/2000/svg" width="560" height="560" viewBox="0 0 560 560"><path d="M529.2 290.8c-7.8 9.1-18.2 15.9-30.2 19.1l25.4 130.4L413.6 482l-12.5-170.1h-17l12.4 167.9-107.4-43v-135c-6.8-4.5-12.6-10.4-17.1-17.3V438l-107.4 42.9L185.2 202l47.8-23c-7.2-9.6-10.8-21-10.9-32.5l-44.8 21.6-92.6-42.9c-4.6-2.3-10.3-2.3-14.8 0-4.6 2.3-8 6.8-9.1 12.4L.2 448.1c-1.1 7.9 3.4 15.8 10.3 19.2l137.1 51.9c4.6 1.1 8 1.1 12.6 0L280 470.7l119.9 47.4c2.3 1.1 4.6 1.1 6.9 1.1s4.6 0 5.7-1.1l137.1-51.9c6.8-2.3 11.4-10.2 10.2-18.1l-30.6-157.3zM147.5 482L37.9 440.2l52.5-275.5 77.7 36.1L147.5 482zM301.2 161.1v90.6c0 11.1 9 20.1 20.1 20.1h50.3v-90.6c0-5.5 4.5-10.1 10.1-10.1H422c5.5 0 10.1 4.5 10.1 10.1v90.6h50.3c11.1 0 20.1-9 20.1-20.1v-90.6L401.9 60.5 301.2 161.1zm237.4-25.6l-56.1-55.6V30.3h-30.2V50L401.9.1 265.4 135.4c-5.9 5.9-5.9 15.5 0 21.3 5.9 5.9 15.5 5.9 21.3 0L401.9 40.3l115.3 116.5c5.9 5.9 15.5 5.9 21.3 0 6-5.9 6-15.4.1-21.3z"/></svg>
