<svg xmlns="http://www.w3.org/2000/svg" width="560" height="560" viewBox="0 0 560 560"><path d="M440 128.2c0 33.1-26.9 60-60 60s-60-26.9-60-60 26.9-60 60-60 60 26.9 60 60zM240 208.2h140v140H240v-140zM466.2 142.8l2.3-1.1 3.4 18.3h36.5l-9.1-45.7c-1.1-5.7-4.6-9.1-9.1-12.6-4.6-2.3-10.3-2.3-14.8 0l-12.6 4.6 3.4 36.5zM412.8 308.2l67.2-120 67.2 120H412.8zM559.8 427.2l-18.3-95.9h-35.4l17.1 87.9-109.6 42.3L409 393h-17.1l4.6 67.4L289.1 417v-24H272v24l-107.4 43.4 20.6-282.1 85.7-42.3v54.8H288v-56l9.1 4.6 5.7-35.4-16-8c-4.6-2.3-10.3-2.3-14.8 0l-94.8 48-92.5-43.4c-4.6-2.3-10.3-2.3-14.8 0-4.6 2.3-8 6.9-9.1 12.6L.2 427.2c-1.1 8 3.4 16 10.3 19.4l137.1 52.5c4.6 1.1 8 1.1 12.6 0L280 450l119.9 48c2.3 1.1 4.6 1.1 6.9 1.1 2.3 0 4.6 0 5.7-1.1l137.1-52.5c6.8-2.3 11.4-10.3 10.2-18.3zm-413.4 34.3L36.7 419.2l53.7-278.7 77.7 36.5-21.7 284.5z"/></svg>