<?xml version="1.0" encoding="UTF-8"?>
<svg width="24px" height="24px" viewBox="0 0 24 24" version="1.1" xmlns="http://www.w3.org/2000/svg" xmlns:xlink="http://www.w3.org/1999/xlink">
    <title>legend</title>
    <g id="legend" stroke="none" stroke-width="1" fill="none" fill-rule="evenodd" stroke-linecap="round" stroke-linejoin="round">
        <path d="M21.4142136,6.41421356 L8.41421356,6.41421356 M8.41421356,12.4142136 L21.4142136,12.4142136 M21.4142136,18.4142136 L8.41421356,18.4142136 M3.41421356,7.82842712 L4.82842712,6.41421356 L3.41421356,5 L2,6.41421356 M3.41421356,7.82842712 L2,6.41421356 M2.41421356,13.4142136 L2.41421356,11.4142136 L4.41421356,11.4142136 L4.41421356,13.4142136 M2.41421356,13.4142136 L4.41421356,13.4142136 M2.41421356,18.4142136 C2.41421356,17.8619288 2.86192881,17.4142136 3.41421356,17.4142136 C3.96649831,17.4142136 4.41421356,17.8619288 4.41421356,18.4142136 C4.41421356,18.9664983 3.96649831,19.4142136 3.41421356,19.4142136 M2.41421356,18.4142136 C2.41421356,18.9664983 2.86192881,19.4142136 3.41421356,19.4142136" id="Shape" stroke="#000000" stroke-width="2"></path>
    </g>
</svg>