<svg xmlns="http://www.w3.org/2000/svg" viewBox="0 0 560 560"><path d="M466.7 404.4H280c-51.6 0-93.3-41.8-93.3-93.3v-62.2h62.2v62.2c0 17.2 13.9 31.1 31.1 31.1h186.7c17.2 0 31.1-14 31.1-31.1v-62.2c0-17.1-14-31.1-31.1-31.1h-66.6c-6.4-24.5-20-46-38.6-62.2h105.2c51.6 0 93.3 41.8 93.3 93.3v62.2c0 51.6-41.8 93.4-93.3 93.3zm-306.8-62.2H93.3c-17.2 0-31.1-14-31.1-31.1v-62.2c0-17.2 13.9-31.1 31.1-31.1H280c17.1 0 31.1 14 31.1 31.1v62.2h62.2v-62.2c0-51.6-41.8-93.3-93.3-93.3H93.3C41.8 155.6 0 197.4 0 248.9v62.2c0 51.5 41.8 93.3 93.3 93.3h105.2c-18.5-16.2-32.1-37.6-38.6-62.2zm0 0"/></svg>