<svg xmlns="http://www.w3.org/2000/svg" width="560" height="560" viewBox="0 0 560 560"><path d="M540 260h-61c-9.4-94.5-84.5-169.6-179-179V20c0-11-9-20-20-20s-20 9-20 20v61c-94.5 9.4-169.6 84.5-179 179H20c-11 0-20 9-20 20s9 20 20 20h61c9.4 94.5 84.5 169.6 179 179v61c0 11 9 20 20 20s20-9 20-20v-61c94.5-9.4 169.6-84.5 179-179h61c11 0 20-9 20-20s-9-20-20-20zM300 438.8V320h-40v118.8c-72.4-9-129.7-66.4-138.8-138.8H240v-40H121.2c9-72.4 66.4-129.7 138.8-138.8V240h40V121.2c72.4 9 129.7 66.4 138.8 138.8H320v40h118.8c-9.1 72.4-66.4 129.7-138.8 138.8z"/></svg>