<svg xmlns="http://www.w3.org/2000/svg" width="560" height="560" viewBox="0 0 560 560"><path d="M340 160H159.8c-44 0-79.8 36-79.8 80H0C0 152 71.6 80 159.8 80H340V0l220 120-220 120v-80zM505 523.8l-73.7-12.9c-8-1.4-14-8.3-14.2-16.5 0-1.4-.1-2.5-.1-3.1-1-20.5-5.4-40.1-12.6-58.2C377.8 366.8 313 320 237.3 320c-28.6 0-55.7 6.7-79.7 18.6-59.4 29.3-100.3 90.5-100.3 161.3v2.4c.1 5.6-2.7 10.9-7.3 14.2-6 4.3-10 11.4-10 19.5 0 13.3 10.8 24 24 24 1.2 0 2.4 0 3.5-.2v.2H501.7c10 0 18.2-8.2 18.2-18.2.1-8.9-6.2-16.5-14.9-18zm-135.3-64.4c-2.1.8-4.2 1.2-6.4 1.2-6.8 0-13.2-4.1-15.9-10.8-7.9-19.8-21.5-36.8-39.2-49-18.1-12.5-39.3-19.1-61.4-19.1-16.8 0-33 3.8-47.9 11.2-8.5 4.2-18.8.7-23-7.8-4.2-8.5-.7-18.8 7.8-23 19.7-9.8 41-14.7 63.1-14.7 29 0 57 8.7 80.8 25.1 23.3 16 41.1 38.3 51.6 64.5 3.5 8.9-.7 18.9-9.5 22.4z"/></svg>