<svg xmlns="http://www.w3.org/2000/svg" width="560" height="560" viewBox="0 0 560 560"><path d="M155.4 402.7c51.9 52.3 112.1 91.9 175 121.4 64.6 30.3 141.2 16.2 191.6-34.6l4.7-4.7c23.2-23.4 14.9-63.1-15.8-75l-116-44.9c-16.8-6.5-35.7-2.4-48.4 10.3L324.9 397c-7.6 7.7-19.6 8.9-28.5 2.9-26.9-18-53.1-38.1-76.7-61.9-22.3-22.5-42.2-46.5-59.6-71.7-6.3-9.1-5.3-21.5 2.5-29.3l22-22.2c12.7-12.8 16.7-31.9 10.3-48.8L150.3 49.3C138.5 18.4 99 10 75.8 33.4L70 39.3C18.8 90.7 5.4 169.1 36.8 234.7c29 60.7 68.5 117.7 118.6 168z"/></svg>