<svg xmlns="http://www.w3.org/2000/svg" width="560" height="560" viewBox="0 0 560 560"><path d="M559.8 447.2l-60.4-313.6c-5.5 15.9-13.8 33.2-25.1 52l48.9 253.6-109.6 42.3-11.6-185-6.9 12.6-11.4-18.3 12.7 189.6L289 436.9V154.8l11.4 5.7c-8.2-16.7-13.8-32.1-16.7-46.1-3.1-.6-6.9-.3-10.6 1.6l-95.9 48-92.5-43.4c-4.6-2.3-10.3-2.3-14.8 0-4.6 2.3-8 6.9-9.1 12.6L.2 447.2c-1.1 8 3.4 16 10.3 19.4l137.1 52.5c4.6 1.1 8 1.1 12.6 0L280 470l119.9 48c2.3 1.1 4.6 1.1 6.9 1.1 2.3 0 4.6 0 5.7-1.1l137.1-52.5c6.8-2.3 11.4-10.3 10.2-18.3zm-413.4 34.3L36.7 439.2l53.7-278.7 77.7 36.5-21.7 284.5zm17.1-1.1l20.7-282.1L270 156v281h.9l-107.4 43.4zM394.3 0c-51.3 0-92.9 41.6-92.9 92.9 0 65.1 92.9 167.1 92.9 167.1s92.9-102 92.9-167.1C487.1 41.6 445.6 0 394.3 0zm0 130c-20.5 0-37.1-16.6-37.1-37.1s16.6-37.1 37.1-37.1 37.1 16.6 37.1 37.1-16.6 37.1-37.1 37.1z"/></svg>