<svg xmlns="http://www.w3.org/2000/svg" width="560" height="560" viewBox="0 0 560 560"><path d="M280 0C169.5 0 80 89.5 80 200c0 140.3 200 360 200 360s200-219.7 200-360C480 89.5 390.5 0 280 0zm0 340c-77.3 0-140-62.7-140-140S202.7 60 280 60s140 62.7 140 140-62.7 140-140 140z"/><path d="M286.7 104.1l26 52.6c.6 1.1 1.6 1.9 2.9 2.1l58.1 8.4c6.1.9 8.5 8.4 4.1 12.7l-42 41c-.9.9-1.3 2.2-1.1 3.4l9.9 57.8c1 6.1-5.3 10.7-10.8 7.8l-51.9-27.3c-1.1-.6-2.5-.6-3.6 0l-51.9 27.3c-5.5 2.9-11.8-1.8-10.8-7.8l9.9-57.8c.2-1.3-.2-2.5-1.1-3.4l-42-41c-4.4-4.3-2-11.8 4.1-12.7l58.1-8.4c1.3-.2 2.4-1 2.9-2.1l26-52.6c2.6-5.5 10.5-5.5 13.2 0z"/></svg>