<?xml version="1.0" encoding="UTF-8"?>
<svg width="24px" height="24px" viewBox="0 0 24 24" version="1.1" xmlns="http://www.w3.org/2000/svg" xmlns:xlink="http://www.w3.org/1999/xlink">
    <title>icon/pin</title>
    <g id="icon/pin" stroke="none" stroke-width="1" fill="none" fill-rule="evenodd" stroke-linecap="round" stroke-linejoin="round">
        <path d="M21,10.0000001 C21,5.0294373 16.9705627,1.00000013 12,1.00000013 C7.0294373,1.00000013 3,5.0294373 3,10.0000001 C3,17.0000001 12,23.0000001 12,23.0000001 C12,23.0000001 21,17.0000001 21,10.0000001 M12,13.0000001 C13.6568542,13.0000001 15,11.6568542 15,10.0000001 C15,8.34314575 13.6568542,7.00000013 12,7.00000013 C10.3431458,7.00000013 9,8.34314575 9,10.0000001 M12,13.0000001 C10.3431458,13.0000001 9,11.6568542 9,10.0000001 C9,8.34314575 10.3431458,7.00000013 12,7.00000013 C13.6568542,7.00000013 15,8.34314575 15,10.0000001" id="Shape" stroke="#000000" stroke-width="2"></path>
    </g>
</svg>