<svg xmlns="http://www.w3.org/2000/svg" width="560" height="560" viewBox="0 0 560 560"><path d="M220 160h180.2c44 0 79.8 36 79.8 80h80c0-88.3-71.6-160-159.8-160H220V0L0 120l220 120v-80zM40 541.7c0 10.1 8.1 18.3 18.2 18.3H492.4v-.2c1.1.2 2.3.2 3.5.2 13.3 0 24-10.8 24-24 0-8.1-4-15.2-10.1-19.5-4.6-3.3-7.4-8.5-7.3-14.2v-2.4c0-70.7-40.8-131.9-100.2-161.3-24-11.9-51.1-18.6-79.7-18.6-75.8 0-140.6 46.8-167.1 113.1-7.3 18.1-11.7 37.7-12.6 58.2 0 .7-.1 1.8-.1 3.1-.2 8.2-6.1 15.1-14.2 16.5L55 523.8c-8.7 1.5-15 9.1-15 17.9zm140.8-104.6c10.5-26.1 28.3-48.4 51.6-64.5 23.8-16.4 51.8-25.1 80.8-25.1 22.2 0 43.4 4.9 63.1 14.7 8.5 4.2 12 14.5 7.8 23s-14.5 12-23 7.8c-15-7.4-31.1-11.2-47.9-11.2-22.1 0-43.3 6.6-61.4 19.1-17.7 12.2-31.2 29.1-39.2 49-2.7 6.7-9.1 10.8-15.9 10.8-2.1 0-4.3-.4-6.4-1.2-8.8-3.6-13-13.6-9.5-22.4z"/></svg>