<svg xmlns="http://www.w3.org/2000/svg" width="560" height="560" viewBox="0 0 560 560"><path d="M460 360c-55.2 0-100 44.8-100 100s44.8 100 100 100 100-44.8 100-100-44.8-100-100-100zm0 140c-22.1 0-40-17.9-40-40s17.9-40 40-40 40 17.9 40 40-17.9 40-40 40zM130 370c0-33.1 26.9-60 60-60h180c66.2 0 120-53.8 120-120S436.2 70 370 70H195.4C182.7 29.4 144.8 0 100 0 44.8 0 0 44.8 0 100s44.8 100 100 100c44.8 0 82.7-29.4 95.4-70H370c33.1 0 60 26.9 60 60s-26.9 60-60 60H190c-66.2 0-120 53.8-120 120s53.8 120 120 120h90v-60h-90c-33.1 0-60-26.9-60-60zm-30-230c-22.1 0-40-17.9-40-40s17.9-40 40-40 40 17.9 40 40-17.9 40-40 40z"/></svg>