<svg xmlns="http://www.w3.org/2000/svg" width="560" height="560" viewBox="0 0 560 560"><path d="M540 240h-64c-5.2-25.4-15.1-49-28.9-69.9l45-45c7.8-7.8 7.8-20.5 0-28.3l-28.3-28.3c-7.8-7.8-20.5-7.8-28.3 0l-44.9 44.9c-21.1-14-45-24.2-70.7-29.4V20c0-11-9-20-20-20h-40c-11 0-20 9-20 20v64c-25.5 5.2-49.3 15.2-70.3 29.1l-45.3-45.3c-7.8-7.8-20.5-7.8-28.3 0L67.9 96.1c-7.8 7.8-7.8 20.5 0 28.3l45.3 45.3c-13.9 21-24 44.8-29.1 70.3H20c-11 0-20 9-20 20v40c0 11 9 20 20 20h64c5.2 25.4 15.1 49 28.9 69.9l-45 45c-7.8 7.8-7.8 20.5 0 28.3l28.3 28.3c7.8 7.8 20.5 7.8 28.3 0l44.9-44.9c21.1 14 45 24.2 70.7 29.4v64c0 11 9 20 20 20h40c11 0 20-9 20-20v-64c25.6-5.2 49.4-15.3 70.5-29.3l44.7 44.7c7.8 7.8 20.5 7.8 28.3 0l28.3-28.3c7.8-7.8 7.8-20.5 0-28.3L447 390.1c13.8-20.9 23.8-44.6 29-70.1h64c11 0 20-9 20-20v-40c0-11-9-20-20-20zM280 400c-66.3 0-120-53.7-120-120s53.7-120 120-120 120 53.7 120 120-53.7 120-120 120z"/></svg>