<?xml version="1.0" encoding="UTF-8"?>
<svg width="24px" height="24px" viewBox="0 0 24 24" version="1.1" xmlns="http://www.w3.org/2000/svg" xmlns:xlink="http://www.w3.org/1999/xlink">
    <title>share</title>
    <g id="share" stroke="none" stroke-width="1" fill="none" fill-rule="evenodd" stroke-linecap="round" stroke-linejoin="round">
        <path d="M15.41,6.51 L8.59,10.49 M8.59,13.51 L15.42,17.49 M18,22 C19.6568542,22 21,20.6568542 21,19 C21,17.3431458 19.6568542,16 18,16 C16.3431458,16 15,17.3431458 15,19 M18,22 C16.3431458,22 15,20.6568542 15,19 C15,17.3431458 16.3431458,16 18,16 C19.6568542,16 21,17.3431458 21,19 M18,8 C19.6568542,8 21,6.65685425 21,5 C21,3.34314575 19.6568542,2 18,2 C16.3431458,2 15,3.34314575 15,5 M18,8 C16.3431458,8 15,6.65685425 15,5 C15,3.34314575 16.3431458,2 18,2 C19.6568542,2 21,3.34314575 21,5 M6,15 C7.65685425,15 9,13.6568542 9,12 C9,10.3431458 7.65685425,9 6,9 C4.34314575,9 3,10.3431458 3,12 M6,15 C4.34314575,15 3,13.6568542 3,12 C3,10.3431458 4.34314575,9 6,9 C7.65685425,9 9,10.3431458 9,12" id="Shape" stroke="#000000" stroke-width="2"></path>
    </g>
</svg>