<?xml version="1.0" encoding="UTF-8"?>
<svg width="24px" height="24px" viewBox="0 0 24 24" version="1.1" xmlns="http://www.w3.org/2000/svg" xmlns:xlink="http://www.w3.org/1999/xlink">
    <title>show</title>
    <g id="show" stroke="none" stroke-width="1" fill="none" fill-rule="evenodd" stroke-linecap="round" stroke-linejoin="round">
        <path d="M1,12 C1,12 5,4 12,4 C19,4 23,12 23,12 C23,12 19,20 12,20 M23,12 C23,12 19,4 12,4 C5,4 1,12 1,12 C1,12 5,20 12,20 M12,15 C13.6568542,15 15,13.6568542 15,12 C15,10.3431458 13.6568542,9 12,9 C10.3431458,9 9,10.3431458 9,12 M12,15 C10.3431458,15 9,13.6568542 9,12 C9,10.3431458 10.3431458,9 12,9 C13.6568542,9 15,10.3431458 15,12" id="Shape" stroke="#000000" stroke-width="2"></path>
    </g>
</svg>