<svg xmlns="http://www.w3.org/2000/svg" width="560" height="560" viewBox="0 0 560 560">
  <path d="M278.2 146.6c39.8 0 80.4 12 120.5 35.6 31.2 18.4 62.5 43.9 93.4 76.2a31.2 31.2 0 0 1 0 43.2 440.4 440.4 0 0 1-93.4 76.2c-40.1 23.7-80.7 35.6-120.5 35.6-85.2 0-158-53.9-211.7-112a31.4 31.4 0 0 1 0-42.8c53.8-58.1 126.5-112 211.7-112m0-40c-51.5 0-103 16.4-152.8 48.7a500.1 500.1 0 0 0-109 99.2L3.8 269.7a16 16 0 0 0 0 20.7l12.6 15c34.9 41.6 71.5 75 109 99.3 49.9 32.4 101.3 48.7 152.8 48.7 47.2 0 94.8-13.8 141.3-41.2 41.6-24.5 83-60.2 123-106.1l13.5-15.5a16 16 0 0 0 0-21.2L542.5 254c-40-45.9-81.4-81.6-123-106-46.5-27.5-94-41.3-141.4-41.3z"/>
  <circle cx="280" cy="280" r="90"/>
</svg>