<svg xmlns="http://www.w3.org/2000/svg" width="560" height="560" viewBox="0 0 560 560"><path d="M320 80h160v40H320zM560 0H0v420h298.1c6.8 6.3 14.1 12 21.9 16.9V560l80.2-60 79.8 60V436.9c7.8-5 15.2-10.6 21.9-16.9H560V0zM40 40h480v180.1c-11-14.6-24.5-27.2-40-37V160H320v23.1c-18.8 11.9-34.8 27.9-46.7 46.7-16-16.7-35.2-26.3-47.7-31.2 17.7-11.5 29.5-31.4 29.5-54.1 0-35.6-28.8-64.4-64.4-64.4s-64.4 28.8-64.4 64.4c0 23.4 12.5 43.9 31.2 55.2-16.5 6.7-41.1 21.2-60.2 51C85.1 269.6 80 294.8 80 322v11.7c0 3.6 2.9 6.3 6.4 6.3H253c2.9 14.2 7.8 27.6 14.3 40H40V40zm443 342.1c-.1.1-.1.2-.2.2-1 1.2-2.1 2.3-3.2 3.5l-1.2 1.2-1.1 1.1-.7.7c-19.8 19.2-46.8 31-76.5 31h-2.9c-30.5-.8-57.8-14-77.1-34.8v.3c-.2-.3-.5-.5-.7-.8-.3-.4-.7-.7-1-1.1-18.1-20.1-28.4-46-28.4-73.4 0-29.4 11.5-57 32.2-77.8S370.6 200 400 200s57 11.4 77.8 32.2S510 280.6 510 310c0 26.4-9.5 51.3-26.2 71.1-.3.4-.5.7-.8 1z"/></svg>