<svg xmlns="http://www.w3.org/2000/svg" width="560" height="560" viewBox="0 0 560 560"><circle cx="280" cy="50" r="50"/><path d="M360 120H200c-22.1 0-40 17.9-40 40v160h40V220h20v260h120V220h20v100h40V160c0-22.1-17.9-40-40-40z"/><path d="M360 427.3v40.9c7.2 1.6 14.1 3.4 20.5 5.4 18.7 5.8 29.8 12.1 35.6 16.5-5.8 4.3-16.9 10.6-35.6 16.5-28 8.7-63.7 13.5-100.5 13.5s-72.5-4.8-100.5-13.5c-18.7-5.8-29.8-12.1-35.6-16.5 5.8-4.3 16.9-10.6 35.6-16.5 6.5-2 13.3-3.8 20.5-5.4v-40.9c-59.3 11.5-100 35.2-100 62.7 0 38.7 80.6 70 180 70s180-31.3 180-70c0-27.5-40.7-51.3-100-62.7z"/></svg>
