<?xml version="1.0" encoding="UTF-8"?>
<svg width="24px" height="24px" viewBox="0 0 24 24" version="1.1" xmlns="http://www.w3.org/2000/svg" xmlns:xlink="http://www.w3.org/1999/xlink">
    <title>icon/tasks</title>
    <g id="icon/tasks" stroke="none" stroke-width="1" fill="none" fill-rule="evenodd" stroke-linecap="round" stroke-linejoin="round">
        <path d="M16,4 L18,4 C19.1045695,4 20,4.8954305 20,6 L20,20 C20,21.1045695 19.1045695,22 18,22 L6,22 C4.8954305,22 4,21.1045695 4,20 L4,6 C4,4.8954305 4.8954305,4 6,4 M8,4 L6,4 C4.8954305,4 4,4.8954305 4,6 L4,20 C4,21.1045695 4.8954305,22 6,22 L18,22 C19.1045695,22 20,21.1045695 20,20 L20,6 C20,4.8954305 19.1045695,4 18,4 M8,5 C8,5.55228475 8.44771525,6 9,6 L15,6 C15.5522847,6 16,5.55228475 16,5 L16,3 C16,2.44771525 15.5522847,2 15,2 L9,2 M16,5 C16,5.55228475 15.5522847,6 15,6 L9,6 C8.44771525,6 8,5.55228475 8,5 L8,3 C8,2.44771525 8.44771525,2 9,2 L15,2" id="Shape" stroke="#000000" stroke-width="2"></path>
    </g>
</svg>