<svg xmlns="http://www.w3.org/2000/svg" width="560" height="560" viewBox="0 0 560 560"><path d="M559.8 408.3L499.3 97.8c-1.1-5.6-4.6-9-9.1-12.4-4.6-2.3-10.3-2.3-14.8 0l-92.5 42.9L288 82c-4.6-2.3-10.3-2.3-14.8 0l-95.9 46.3-92.6-42.9c-4.6-2.3-10.3-2.3-14.8 0-4.6 2.3-8 6.8-9.1 12.4L.2 408.3c-1.1 7.9 3.4 15.8 10.3 19.2l137.1 51.9c4.6 1.1 8 1.1 12.6 0L280 430.9l119.9 47.4c2.3 1.1 4.6 1.1 6.9 1.1 2.3 0 4.6 0 5.7-1.1l137.1-51.9c6.8-2.3 11.4-10.2 10.2-18.1zM185.2 162.2l86.8-41.8v277.8l-107.4 42.9 20.6-278.9zm103.9-42.9l86.8 41.8L396.5 440l-107.4-43V119.3zm-198.7 5.6l77.7 36.1-20.6 281.2-109.6-41.8 52.5-275.5zm323.2 317.3L393 161l77.7-36.1 53.7 275.5-110.8 41.8z"/></svg>