<svg xmlns="http://www.w3.org/2000/svg" viewBox="0 0 560 560" enable-background="new 0 0 560 560"><path fill="#010101" d="M280.3 360c-4 0-8-1.2-11.4-3.5-5.6-3.8-8.9-10.1-8.9-16.8V231.5c0-11.2 8.8-20.3 20-20.3s20 9.1 20 20.3v78.3l40.1-15.9c10.4-4.2 22.4.9 26.5 11.3s-.8 22.2-11.2 26.4l-67.6 27.1c-2.4.8-5 1.3-7.5 1.3zM449.7 150.3C411.5 112.1 363 88.4 310 81.8V40h20c5.5 0 10-4.5 10-10V10c0-5.5-4.5-10-10-10h-99.7C224.8 0 220 4.5 220 10v20c0 5.5 4.8 10 10.3 10H250v41.8c-53 6.5-101.5 30.3-139.7 68.4C65 195.6 40 255.9 40 320s25 124.4 70.3 169.7C155.6 535 215.9 560 280 560s124.4-25 169.7-70.3S520 384.1 520 320s-25-124.4-70.3-169.7zM280 500c-99.3 0-180-80.7-180-180s80.7-180 180-180 180 80.7 180 180-80.7 180-180 180zM386.5 92.4c24.5 16.1 47.8 31.4 71.6 47 2.7-4 6-8.8 9-13.7 8.3-13.7 6.2-24.4-6.9-33.7-6.4-4.6-13.4-8.4-19.7-13.1-30.7-22.6-39.1-11.6-53.9 13.3-.4.6-.4 1.3-.1.2z"/></svg>