<svg xmlns="http://www.w3.org/2000/svg" width="560" height="560" viewBox="0 0 560 560"><path d="M475.3 244c-4.9-1.3-10-2-15.3-2-9.5 0-18.4 2.2-26.2 6.2l-50-69.9c10.8-10.8 17.5-25.8 17.5-42.3 0-33.1-26.9-60-60-60s-60 26.9-60 60c0 21.2 11 39.8 27.5 50.4l-73.4 171.3c-4.6-1.2-9.5-1.8-14.5-1.8-10.2 0-19.7 2.5-28.1 7L143 296.6c10.5-10.8 16.9-25.5 16.9-41.7 0-33.1-26.9-60-60-60s-60 26.9-60 60c0 21 10.8 39.5 27.1 50.2l-27 61v49.1l45.4-102c4.7 1.2 9.5 1.8 14.6 1.8 9.7 0 18.9-2.3 27-6.4l50 66.6c-10 10.7-16.1 25.1-16.1 40.8 0 33.1 26.9 60 60 60s60-26.9 60-60c0-21-10.8-39.5-27.2-50.2l73.4-171.5c4.5 1.1 9.2 1.7 14.1 1.7 9.4 0 18.3-2.2 26.3-6.1l50.3 70.4C408 271.1 402 285.8 402 302c0 33.1 24.9 60 58 60s60-26.9 60-60c0-20.7-10.5-39-26.5-49.8l26.5-58.3v-48.4L475.3 244z"/></svg>