<svg xmlns="http://www.w3.org/2000/svg" viewBox="0 0 560 560" enable-background="new 0 0 560 560"><path d="M280 0C202.7 0 132.7 31.3 82 82L20 20v160h160l-55.6-55.6C166 82.9 221.2 60 280 60s114 22.9 155.6 64.4C477.1 166 500 221.2 500 280s-22.9 114-64.4 155.6C394 477.1 338.8 500 280 500s-114-22.9-155.6-64.4C102.6 413.7 85.9 388 74.9 360H11.6C46 475.7 153.2 560 280 560c154.6 0 280-125.4 280-280S434.6 0 280 0zM280 329c-5.9 0-11.8-1.7-16.8-5.2-8.3-5.5-13.2-14.8-13.2-24.8V139c0-16.6 13.4-30 30-30s30 13.4 30 30v115.7l58.9-23.5c15.4-6.2 32.8 1.3 39 16.7s-1.3 32.8-16.7 39l-100 40c-3.7 1.4-7.4 2.1-11.2 2.1z"/></svg>