<svg xmlns="http://www.w3.org/2000/svg" viewBox="0 0 560 560" enable-background="new 0 0 560 560"><path d="M280 329c-5.9 0-11.8-1.7-16.8-5.2-8.3-5.5-13.2-14.8-13.2-24.8V139c0-16.6 13.4-30 30-30s30 13.4 30 30v115.7l58.9-23.5c15.4-6.2 32.8 1.3 39 16.7s-1.3 32.8-16.7 39l-100 40c-3.7 1.4-7.4 2.1-11.2 2.1zM435.6 124.4C477.1 166 500 221.2 500 280s-22.9 114-64.4 155.6L380 380v160h160l-62-62c50.7-50.7 82-120.7 82-198s-31.3-147.3-82-198l62-62H380v160l55.6-55.6zM320 557.1v-60.8c-13 2.4-26.4 3.6-40 3.6-58.8 0-114-22.9-155.6-64.4C82.9 394 60 338.8 60 280s22.9-114 64.4-155.6C166 82.9 221.2 60 280 60c13.6 0 26.9 1.2 40 3.6V2.9C306.9 1 293.6 0 280 0 125.4 0 0 125.4 0 280s125.4 280 280 280c13.6 0 27-1 40-2.9z"/></svg>