<svg xmlns="http://www.w3.org/2000/svg" width="560" height="560" viewBox="0 0 560 560"><path d="M280 60c58.8 0 114 22.9 155.6 64.4C477.1 166 500 221.2 500 280s-22.9 114-64.4 155.6C394 477.1 338.8 500 280 500s-114-22.9-155.6-64.4C82.9 394 60 338.8 60 280s22.9-114 64.4-155.6C166 82.9 221.2 60 280 60m0-60C125.4 0 0 125.4 0 280s125.4 280 280 280 280-125.4 280-280S434.6 0 280 0zM280 330c-5.9 0-11.8-1.7-16.8-5.2-8.3-5.5-13.2-14.8-13.2-24.8V140c0-16.6 13.4-30 30-30s30 13.4 30 30v115.7l58.9-23.5c15.4-6.2 32.8 1.3 39 16.7s-1.3 32.8-16.7 39l-100 40c-3.7 1.4-7.4 2.1-11.2 2.1z"/></svg>