<svg xmlns="http://www.w3.org/2000/svg" width="560" height="560" viewBox="0 0 560 560"><path d="M502.7 163.8c.2 5 .3 10.1.3 15.1 0 154.5-115.6 332.6-326.9 332.6-64.9 0-125.3-19.3-176.1-52.5 9 1.1 18.1 1.6 27.4 1.6 53.8 0 103.4-18.7 142.7-50-50.3-.9-92.7-34.7-107.3-81.2 7 1.4 14.2 2.1 21.6 2.1 10.5 0 20.6-1.4 30.3-4.1-52.6-10.7-92.2-58-92.2-114.6v-1.5c15.5 8.8 33.2 14 52 14.6-30.8-21-51.1-56.7-51.1-97.3 0-21.4 5.7-41.5 15.6-58.8C95.6 140.6 180.3 187.1 275.8 192c-2-8.6-3-17.5-3-26.6 0-64.6 51.4-116.9 114.9-116.9 33 0 62.9 14.2 83.9 36.9 26.2-5.2 50.8-15 73-28.4-8.6 27.3-26.8 50.2-50.5 64.7 23.2-2.8 45.4-9.1 66-18.4-15.5 23.4-35 44-57.4 60.5z"/></svg>