<?xml version="1.0" encoding="UTF-8"?>
<svg width="24px" height="24px" viewBox="0 0 24 24" version="1.1" xmlns="http://www.w3.org/2000/svg" xmlns:xlink="http://www.w3.org/1999/xlink">
    <title>icon/user</title>
    <g id="icon/user" stroke="none" stroke-width="1" fill="none" fill-rule="evenodd" stroke-linecap="round" stroke-linejoin="round">
        <path d="M4,21 L4,19 C4,16.790861 5.790861,15 8,15 L16,15 C18.209139,15 20,16.790861 20,19 L20,21 M12,11 C14.209139,11 16,9.209139 16,7 C16,4.790861 14.209139,3 12,3 C9.790861,3 8,4.790861 8,7 M12,11 C9.790861,11 8,9.209139 8,7 C8,4.790861 9.790861,3 12,3 C14.209139,3 16,4.790861 16,7" id="Shape" stroke="#000000" stroke-width="2"></path>
    </g>
</svg>