<?xml version="1.0" encoding="UTF-8"?>
<svg width="24px" height="24px" viewBox="0 0 24 24" version="1.1" xmlns="http://www.w3.org/2000/svg" xmlns:xlink="http://www.w3.org/1999/xlink">
    <title>icon/warning</title>
    <g id="icon/warning" stroke="none" stroke-width="1" fill="none" fill-rule="evenodd" stroke-linecap="round" stroke-linejoin="round">
        <path d="M12,2.897256 C12.6990862,2.897256 13.3474343,3.26228132 13.71,3.86 L22.18,18 C22.5353584,18.6153996 22.5374801,19.3731469 22.1855735,19.9905269 C21.8336669,20.6079069 21.180588,20.9921898 20.47,21 L3.53,21 C2.81941202,20.9921898 2.16633311,20.6079069 1.81442652,19.9905269 C1.46251993,19.3731469 1.46464163,18.6153996 1.82,18 L10.29,3.86 M12,2.897256 C11.3009138,2.897256 10.6525657,3.26228132 10.29,3.86 L1.82,18 C1.46464163,18.6153996 1.46251993,19.3731469 1.81442652,19.9905269 C2.16633311,20.6079069 2.81941202,20.9921898 3.53,21 L20.47,21 C21.180588,20.9921898 21.8336669,20.6079069 22.1855735,19.9905269 C22.5374801,19.3731469 22.5353584,18.6153996 22.18,18 L13.71,3.86 M12,9 L12,13 M12,17 L12,17" id="Shape" stroke="#000000" stroke-width="2"></path>
    </g>
</svg>