<?xml version="1.0" encoding="UTF-8"?>
<svg width="24px" height="24px" viewBox="0 0 24 24" version="1.1" xmlns="http://www.w3.org/2000/svg" xmlns:xlink="http://www.w3.org/1999/xlink">
    <title>Icons/Area</title>
    <g id="Icons/Area" stroke="none" stroke-width="1" fill="none" fill-rule="evenodd" stroke-linecap="round" stroke-linejoin="round">
        <path d="M3,7 L3,17 M2,3 C2,3.55228475 2.44771525,4 3,4 C3.55228475,4 4,3.55228475 4,3 C4,2.44771525 3.55228475,2 3,2 M4,3 C4,3.55228475 3.55228475,4 3,4 C2.44771525,4 2,3.55228475 2,3 C2,2.44771525 2.44771525,2 3,2 M7,3 L17,3 M21,7 L21,17 M17,21 L7,21 M3,20 C3.55228475,20 4,20.4477153 4,21 C4,21.5522847 3.55228475,22 3,22 C2.44771525,22 2,21.5522847 2,21 M3,20 C2.44771525,20 2,20.4477153 2,21 C2,21.5522847 2.44771525,22 3,22 C3.55228475,22 4,21.5522847 4,21 M20,21 C20,21.5522847 20.4477153,22 21,22 C21.5522847,22 22,21.5522847 22,21 C22,20.4477153 21.5522847,20 21,20 M22,21 C22,21.5522847 21.5522847,22 21,22 C20.4477153,22 20,21.5522847 20,21 C20,20.4477153 20.4477153,20 21,20 M20,3 C20,3.55228475 20.4477153,4 21,4 C21.5522847,4 22,3.55228475 22,3 C22,2.44771525 21.5522847,2 21,2 M22,3 C22,3.55228475 21.5522847,4 21,4 C20.4477153,4 20,3.55228475 20,3 C20,2.44771525 20.4477153,2 21,2" id="Shape" stroke="#282828" stroke-width="2"></path>
    </g>
</svg>