<?xml version="1.0" encoding="UTF-8"?>
<svg width="24px" height="24px" viewBox="0 0 24 24" version="1.1" xmlns="http://www.w3.org/2000/svg" xmlns:xlink="http://www.w3.org/1999/xlink">
    <title>icon/calendar</title>
    <g id="icon/calendar" stroke="none" stroke-width="1" fill="none" fill-rule="evenodd" stroke-linecap="round" stroke-linejoin="round">
        <path d="M3,20 C3,21.1045695 3.8954305,22 5,22 L19,22 C20.1045695,22 21,21.1045695 21,20 L21,6 C21,4.8954305 20.1045695,4 19,4 L5,4 M21,20 C21,21.1045695 20.1045695,22 19,22 L5,22 C3.8954305,22 3,21.1045695 3,20 L3,6 C3,4.8954305 3.8954305,4 5,4 L19,4 M16,2 L16,6 M8,6 L8,2 M3,10 L21,10" id="Shape" stroke="#000000" stroke-width="2"></path>
    </g>
</svg>