<?xml version="1.0" encoding="UTF-8"?>
<svg width="24px" height="24px" viewBox="0 0 24 24" version="1.1" xmlns="http://www.w3.org/2000/svg" xmlns:xlink="http://www.w3.org/1999/xlink">
    <title>copy</title>
    <g id="copy" stroke="none" stroke-width="1" fill="none" fill-rule="evenodd" stroke-linecap="round" stroke-linejoin="round">
        <path d="M5,15 L4,15 C2.8954305,15 2,14.1045695 2,13 L2,4 C2,2.8954305 2.8954305,2 4,2 L13,2 C14.1045695,2 15,2.8954305 15,4 L15,5 M11,9 L20,9 C21.1045695,9 22,9.8954305 22,11 L22,20 C22,21.1045695 21.1045695,22 20,22 L11,22 C9.8954305,22 9,21.1045695 9,20 M20,9 L11,9 C9.8954305,9 9,9.8954305 9,11 L9,20 C9,21.1045695 9.8954305,22 11,22 L20,22 C21.1045695,22 22,21.1045695 22,20" id="Shape" stroke="#000000" stroke-width="2"></path>
    </g>
</svg>