<?xml version="1.0" encoding="UTF-8"?>
<svg width="24px" height="24px" viewBox="0 0 24 24" version="1.1" xmlns="http://www.w3.org/2000/svg" xmlns:xlink="http://www.w3.org/1999/xlink">
    <title>equipment</title>
    <g id="equipment" stroke="none" stroke-width="1" fill="none" fill-rule="evenodd" stroke-linecap="round" stroke-linejoin="round">
        <path d="M13.7,6.3 C13.3188571,6.68884351 13.3188571,7.31115649 13.7,7.7 L15.3,9.3 C15.6888435,9.68114288 16.3111565,9.68114288 16.7,9.3 L20.47,5.53 C21.499602,7.80526348 21.0121924,10.4803645 19.2462784,12.2462784 C17.4803645,14.0121924 14.8052635,14.499602 12.53,13.47 L5.62,20.38 C4.79157288,21.2084271 3.44842712,21.2084271 2.62,20.38 C1.79157288,19.5515729 1.79157288,18.2084271 2.62,17.38 L9.53,10.47 C8.50039798,8.19473652 8.98780761,5.51963553 10.7537216,3.75372157 C12.5196355,1.98780761 15.1947365,1.50039798 17.47,2.53 L13.71,6.29 L13.7,6.3 Z" id="Path" stroke="#000000" stroke-width="2"></path>
    </g>
</svg>