<?xml version="1.0" encoding="UTF-8"?>
<svg width="24px" height="24px" viewBox="0 0 24 24" version="1.1" xmlns="http://www.w3.org/2000/svg" xmlns:xlink="http://www.w3.org/1999/xlink">
    <title>globe-2</title>
    <g id="globe-2" stroke="none" stroke-width="1" fill="none" fill-rule="evenodd" stroke-linecap="round" stroke-linejoin="round">
        <path d="M2.06103333,10.8888889 L4.22222222,10.8888889 C5.44952222,10.8888889 6.44444444,11.8837778 6.44444444,13.1111111 L6.44444444,14.2222222 C6.44444444,15.4495556 7.43936667,16.4444444 8.66666667,16.4444444 C9.894,16.4444444 10.8888889,17.4393333 10.8888889,18.6666667 L10.8888889,21.939 M7.55555556,3.03946667 L7.55555556,4.77777778 C7.55555556,6.3119 8.79921111,7.55555556 10.3333333,7.55555556 L10.8888889,7.55555556 C12.1162222,7.55555556 13.1111111,8.55047778 13.1111111,9.77777778 C13.1111111,11.0051111 14.106,12 15.3333333,12 C16.5606667,12 17.5555556,11.0051111 17.5555556,9.77777778 C17.5555556,8.55047778 18.5504444,7.55555556 19.7777778,7.55555556 L20.9605556,7.55555556 M15.3333333,21.431 L15.3333333,18.6666667 C15.3333333,17.4393333 16.3282222,16.4444444 17.5555556,16.4444444 L20.9605556,16.4444444 M22,12 C22,17.5228889 17.5228889,22 12,22 C6.47715556,22 2,17.5228889 2,12 C2,6.47715556 6.47715556,2 12,2 C17.5228889,2 22,6.47715556 22,12 Z" id="Shape" stroke="#000000" stroke-width="2"></path>
    </g>
</svg>