<?xml version="1.0" encoding="UTF-8"?>
<svg width="24px" height="24px" viewBox="0 0 24 24" version="1.1" xmlns="http://www.w3.org/2000/svg" xmlns:xlink="http://www.w3.org/1999/xlink">
    <title>hide</title>
    <g id="hide" stroke="none" stroke-width="1" fill="none" fill-rule="evenodd" stroke-linecap="round" stroke-linejoin="round">
        <path d="M14.12,14.12 C13.3721177,14.9226127 12.2457778,15.2529967 11.1828444,14.9815422 C10.1199109,14.7100876 9.28991239,13.8800891 9.01845783,12.8171556 C8.74700327,11.7542222 9.07738729,10.6278823 9.88,9.88 M6.06,6.06 C3.96913545,7.65660741 2.2438899,9.68189567 1,12 C1,12 5,20 12,20 C14.1491075,19.9648632 16.23059,19.2430022 17.94,17.94 C19.5292292,16.7286059 19.5534178,16.7189968 20.84,15.19 C21.6690554,14.2047361 22.3929796,13.1356074 23,12 C23,12 19,3.99992667 12,3.99992667 C11.2930641,3.99833874 10.5883323,4.07887951 9.9,4.24 M1,1 L23,23" id="Shape" stroke="#000000" stroke-width="2"></path>
    </g>
</svg>