<?xml version="1.0" encoding="UTF-8"?>
<svg width="24px" height="24px" viewBox="0 0 24 24" version="1.1" xmlns="http://www.w3.org/2000/svg" xmlns:xlink="http://www.w3.org/1999/xlink">
    <title>icon/link</title>
    <g id="icon/link" stroke="none" stroke-width="1" fill="none" fill-rule="evenodd" stroke-linecap="round" stroke-linejoin="round">
        <path d="M11.75,5.18 L13.47,3.47 C15.4318944,1.57513895 18.5504239,1.60223813 20.4790929,3.53090712 C22.4077619,5.45957611 22.434861,8.57810557 20.54,10.54 L17.54,13.54 C16.5143658,14.5660061 15.0936724,15.0959663 13.6466499,14.9923333 C12.1996273,14.8887004 10.8689555,14.1616929 10,13 M14,11 C13.1310445,9.83830708 11.8003727,9.11129957 10.3533501,9.00766666 C8.90632757,8.90403374 7.4856342,9.43399387 6.46,10.46 L3.46,13.46 C1.56513895,15.4218944 1.59223813,18.5404239 3.52090712,20.4690929 C5.44957611,22.3977619 8.56810557,22.424861 10.53,20.53 L12.24,18.82" id="Shape" stroke="#000000" stroke-width="2"></path>
    </g>
</svg>