<?xml version="1.0" encoding="UTF-8"?>
<svg width="24px" height="24px" viewBox="0 0 24 24" version="1.1" xmlns="http://www.w3.org/2000/svg" xmlns:xlink="http://www.w3.org/1999/xlink">
    <title>mobile</title>
    <g id="mobile" stroke="none" stroke-width="1" fill="none" fill-rule="evenodd" stroke-linecap="round" stroke-linejoin="round">
        <path d="M7.5,2 L16.2634346,2 C17.0918617,2 17.7634346,2.67157288 17.7634346,3.5 L17.7634346,20.5 C17.7634346,21.3284271 17.0918617,22 16.2634346,22 L7.5,22 C6.67157288,22 6,21.3284271 6,20.5 M16.2634346,2 L7.5,2 C6.67157288,2 6,2.67157288 6,3.5 L6,20.5 C6,21.3284271 6.67157288,22 7.5,22 L16.2634346,22 C17.0918617,22 17.7634346,21.3284271 17.7634346,20.5 M12,19 L12.01,19 L12,19" id="Shape" stroke="#000000" stroke-width="2"></path>
    </g>
</svg>