<?xml version="1.0" encoding="UTF-8"?>
<svg width="24px" height="24px" viewBox="0 0 24 24" version="1.1" xmlns="http://www.w3.org/2000/svg" xmlns:xlink="http://www.w3.org/1999/xlink">
    <title>objects</title>
    <g id="objects" stroke="none" stroke-width="1" fill="none" fill-rule="evenodd" stroke-linejoin="round">
        <path d="M18,4 L23,13.5 L13,13.5 L18,4 Z M18,4 L13,13.5 L23,13.5 L18,4 Z M7,20 L17,20 L17,10 L7,10 L7,20 Z M17,20 L7,20 L7,10 L17,10 L17,20 Z M6,14 C8.76142375,14 11,11.7614237 11,9 C11,7.02869382 9.85918835,5.32383848 8.20174773,4.50961665 C7.53743035,4.18326909 6.79011757,4 6,4 C3.23857625,4 1,6.23857625 1,9 M9.53553391,5.46446609 C7.58291245,3.51184464 4.41708755,3.51184464 2.46446609,5.46446609 C1.07054213,6.85839006 0.671703008,8.87058049 1.26794873,10.6183098 C1.50692948,11.3188157 1.9057686,11.9768364 2.46446609,12.5355339 C4.41708755,14.4881554 7.58291245,14.4881554 9.53553391,12.5355339" id="Shape" stroke="#000000" stroke-width="2"></path>
    </g>
</svg>