<?xml version="1.0" encoding="UTF-8"?>
<svg width="24px" height="24px" viewBox="0 0 24 24" version="1.1" xmlns="http://www.w3.org/2000/svg" xmlns:xlink="http://www.w3.org/1999/xlink">
    <title>pinBookmark</title>
    <g id="pinBookmark" stroke="none" stroke-width="1" fill="none" fill-rule="evenodd" stroke-linecap="round" stroke-linejoin="round">
        <path d="M12.2727273,15.1818182 C7.42424242,15.1818182 5,15.1818182 5,15.1818182 C5,12.7481225 6.06060606,10.7784255 8.18181818,9.27272727 L8.63636364,6.09090909 L6.81818182,6.09090909 L6.81818182,3 C6.81818182,2.44771525 7.26589707,2 7.81818182,2 L12.2727273,2 L12.2727273,2 L16.7272727,2 C17.2795575,2 17.7272727,2.44771525 17.7272727,3 L17.7272727,6.09090909 L17.7272727,6.09090909 L15.9090909,6.09090909 L16.3636364,9.27272727 C18.4848485,10.7784255 19.5454545,12.7481225 19.5454545,15.1818182 C19.5454545,15.1818182 17.1212121,15.1818182 12.2727273,15.1818182 L12.2727273,22" id="Path-6" stroke="#000000" stroke-width="2"></path>
    </g>
</svg>