<?xml version="1.0" encoding="UTF-8"?>
<svg width="24px" height="24px" viewBox="0 0 24 24" version="1.1" xmlns="http://www.w3.org/2000/svg" xmlns:xlink="http://www.w3.org/1999/xlink">
    <title>roles</title>
    <g id="roles" stroke="none" stroke-width="1" fill="none" fill-rule="evenodd" stroke-linecap="round" stroke-linejoin="round">
        <path d="M1,21 L1,19 C1,16.790861 2.790861,15 5,15 L13,15 C15.209139,15 17,16.790861 17,19 L17,21 M9,11 C11.209139,11 13,9.209139 13,7 C13,4.790861 11.209139,3 9,3 C6.790861,3 5,4.790861 5,7 M9,11 C6.790861,11 5,9.209139 5,7 C5,4.790861 6.790861,3 9,3 C11.209139,3 13,4.790861 13,7 M20,15.13 C21.7649988,15.5857202 22.9986403,17.1771177 23,19 L23,21 M16,10.88 C17.7699148,10.4268302 19.0078433,8.83200885 19.0078433,7.005 C19.0078433,5.17799115 17.7699148,3.58316979 16,3.13" id="Shape" stroke="#000000" stroke-width="2"></path>
    </g>
</svg>