<?xml version="1.0" encoding="UTF-8"?>
<svg width="24px" height="24px" viewBox="0 0 24 24" version="1.1" xmlns="http://www.w3.org/2000/svg" xmlns:xlink="http://www.w3.org/1999/xlink">
    <title>route</title>
    <g id="route" stroke="none" stroke-width="1" fill="none" fill-rule="evenodd" stroke-linecap="round" stroke-linejoin="round">
        <path d="M5,23 C12.3333333,23 16.6666667,23 18,23 C20,23 23,23 23,20 C23,17 21,17 19,17 C17,17 12.5,17.5 12.5,14 C12.5,10.5 17,11 19,11 M23,5.09090905 C23,8.27272726 19,11 19,11 C19,11 15,8.27272726 15,5.09090905 C15,2.83156236 16.790861,1 19,1 C21.209139,1 23,2.83156236 23,5.09090905 M9,17.0909091 C9,14.8315624 7.20913898,13 5,13 C2.79086102,13 1,14.8315624 1,17.0909091 C1,20.2727273 5,23 5,23 C5,23 9,20.2727273 9,17.0909091 M5,18 C5.55228475,18 6,17.5522847 6,17 C6,16.4477153 5.55228475,16 5,16 C4.44771525,16 4,16.4477153 4,17 M5,18 C4.44771525,18 4,17.5522847 4,17 C4,16.4477153 4.44771525,16 5,16 C5.55228475,16 6,16.4477153 6,17 M18,5 C18,4.44771525 18.4477153,4 19,4 C19.5522847,4 20,4.44771525 20,5 C20,5.55228475 19.5522847,6 19,6 M20,5 C20,4.44771525 19.5522847,4 19,4 C18.4477153,4 18,4.44771525 18,5 C18,5.55228475 18.4477153,6 19,6" id="Shape" stroke="#000000" stroke-width="2"></path>
    </g>
</svg>