<?xml version="1.0" encoding="UTF-8"?>
<svg width="24px" height="24px" viewBox="0 0 24 24" version="1.1" xmlns="http://www.w3.org/2000/svg" xmlns:xlink="http://www.w3.org/1999/xlink">
    <title>streetview</title>
    <g id="streetview" stroke="none" stroke-width="1" fill="none" fill-rule="evenodd" stroke-linecap="round" stroke-linejoin="round">
        <path d="M4.22182541,15.2081845 C2.23121694,15.9546627 1,16.9859127 1,18.125 C1,20.4031746 5.92486775,22.25 12,22.25 C18.0751322,22.25 23,20.4031746 23,18.125 C23,16.9859127 21.7687831,15.9546627 19.7781746,15.2081845 M12,19.5 L12,19.5 L14.3333333,19.5 C14.8856181,19.5 15.3333333,19.0522847 15.3333333,18.5 L15.3333333,14 L15.3333333,14 L16,14 C16.5522847,14 17,13.5522847 17,13 L17,10 C17,8.8954305 16.1045695,8 15,8 L12,8 L9,8 C7.8954305,8 7,8.8954305 7,10 L7,13 C7,13.5522847 7.44771525,14 8,14 L8.66666667,14 L8.66666667,14 L8.66666667,18.5 C8.66666667,19.0522847 9.11438192,19.5 9.66666667,19.5 L12,19.5 L12,19.5 M12,7 C13.6568542,7 15,5.65685425 15,4 C15,2.34314575 13.6568542,1 12,1 C10.3431458,1 9,2.34314575 9,4 M12,7 C10.3431458,7 9,5.65685425 9,4" id="Shape" stroke="#000000" stroke-width="2"></path>
    </g>
</svg>