<?xml version="1.0" encoding="UTF-8"?>
<svg width="24px" height="24px" viewBox="0 0 24 24" version="1.1" xmlns="http://www.w3.org/2000/svg" xmlns:xlink="http://www.w3.org/1999/xlink">
    <title>timeseries</title>
    <g id="timeseries" stroke="none" stroke-width="1" fill="none" fill-rule="evenodd" stroke-linecap="round" stroke-linejoin="round">
        <path d="M3,21 C4.1045695,21 5,20.1045695 5,19 C5,17.8954305 4.1045695,17 3,17 C1.8954305,17 1,17.8954305 1,19 M3,21 C1.8954305,21 1,20.1045695 1,19 C1,17.8954305 1.8954305,17 3,17 C4.1045695,17 5,17.8954305 5,19 M3.87461853,17.2024536 L8.12867737,10.8009338 M9.95555254,10.7561169 L13.5264282,15.6415253 M7,9 C7,7.8954305 7.8954305,7 9,7 C10.1045695,7 11,7.8954305 11,9 C11,10.1045695 10.1045695,11 9,11 M11,9 C11,7.8954305 10.1045695,7 9,7 C7.8954305,7 7,7.8954305 7,9 C7,10.1045695 7.8954305,11 9,11 M15,19 C16.1045695,19 17,18.1045695 17,17 C17,15.8954305 16.1045695,15 15,15 C13.8954305,15 13,15.8954305 13,17 M15,19 C13.8954305,19 13,18.1045695 13,17 C13,15.8954305 13.8954305,15 15,15 C16.1045695,15 17,15.8954305 17,17 M16,15.2649994 L20,7.73135376 M21,8 C22.1045695,8 23,7.1045695 23,6 C23,4.8954305 22.1045695,4 21,4 C19.8954305,4 19,4.8954305 19,6 M21,8 C19.8954305,8 19,7.1045695 19,6 C19,4.8954305 19.8954305,4 21,4 C22.1045695,4 23,4.8954305 23,6 M21,8 C22.1045695,8 23,7.1045695 23,6 C23,4.8954305 22.1045695,4 21,4 C19.8954305,4 19,4.8954305 19,6 M21,8 C19.8954305,8 19,7.1045695 19,6 C19,4.8954305 19.8954305,4 21,4 C22.1045695,4 23,4.8954305 23,6" id="Shape" stroke="#000000" stroke-width="2"></path>
    </g>
</svg>