<?xml version="1.0" encoding="UTF-8"?>
<svg width="24px" height="24px" viewBox="0 0 24 24" version="1.1" xmlns="http://www.w3.org/2000/svg" xmlns:xlink="http://www.w3.org/1999/xlink">
    <title>watch</title>
    <g id="watch" stroke="none" stroke-width="1" fill="none" fill-rule="evenodd" stroke-linecap="round" stroke-linejoin="round">
        <path d="M16.51,17.35 L16.16,21.18 C16.066594,22.2137275 15.1979304,23.0042114 14.16,23.0001145 L9.83,23.0001145 C8.79206961,23.0042114 7.92340596,22.2137275 7.83,21.18 L7.48,17.35 M5,12 C5,8.13400675 8.13400675,5 12,5 C15.8659932,5 19,8.13400675 19,12 C19,15.8659932 15.8659932,19 12,19 M5,12 C5,15.8659932 8.13400675,19 12,19 M13.5,13.5 L12,12 L12,9 M7.49,6.65 L7.84,2.82 C7.93306827,1.79009956 8.79590345,1.00097392 9.83,0.999885489 L14.18,0.999885489 C15.2179304,0.995788572 16.086594,1.78627249 16.18,2.82 L16.53,6.65" id="Shape" stroke="#000000" stroke-width="2"></path>
    </g>
</svg>